<svg xmlns="http://www.w3.org/2000/svg" height="512pt" viewBox="0 -1 512.00002 512" width="512pt" fill="#828a9f"><path d="m496.792969 0c-22.097657 0-464.492188 0-481.585938 0-8.394531 0-15.207031 6.8125-15.207031 15.207031v480.164063c0 8.394531 6.8125 15.210937 15.207031 15.210937h481.585938c8.394531 0 15.207031-6.816406 15.207031-15.210937 0-25.128906 0-455.828125 0-480.164063 0-8.394531-6.8125-15.207031-15.207031-15.207031zm-15.207031 30.414062v37.769532h-255.078126l-13.109374-37.769532zm0 449.75h-451.171876v-449.75h150.792969l20.105469 57.964844c2.128906 6.113282 7.886719 10.21875 14.367188 10.21875h265.90625zm0 0"/><path d="m69.378906 77.640625c8.394532 0 15.207032-6.800781 15.207032-15.207031 0-8.394532-6.8125-15.207032-15.207032-15.207032-8.394531 0-15.207031 6.8125-15.207031 15.207032 0 8.40625 6.8125 15.207031 15.207031 15.207031zm0 0"/><path d="m112.367188 77.640625h43.59375c8.40625 0 15.210937-6.800781 15.210937-15.207031 0-8.394532-6.804687-15.207032-15.210937-15.207032h-43.59375c-8.394532 0-15.207032 6.8125-15.207032 15.207032 0 8.40625 6.8125 15.207031 15.207032 15.207031zm0 0"/><path d="m55.710938 160.097656v89.109375c0 8.394531 6.8125 15.207031 15.207031 15.207031h370.164062c8.394531 0 15.207031-6.8125 15.207031-15.207031v-89.109375c0-8.402344-6.8125-15.207031-15.207031-15.207031h-370.164062c-8.394531 0-15.207031 6.804687-15.207031 15.207031zm30.417968 15.210938h339.742188v58.691406h-339.742188zm0 0"/><path d="m227.613281 298.480469h-156.695312c-8.394531 0-15.207031 6.8125-15.207031 15.207031 0 8.40625 6.8125 15.210938 15.207031 15.210938h156.695312c8.394531 0 15.207031-6.804688 15.207031-15.210938 0-8.394531-6.8125-15.207031-15.207031-15.207031zm0 0"/><path d="m227.613281 362.355469h-156.695312c-8.394531 0-15.207031 6.800781-15.207031 15.207031 0 8.394531 6.8125 15.207031 15.207031 15.207031h156.695312c8.394531 0 15.207031-6.8125 15.207031-15.207031 0-8.40625-6.8125-15.207031-15.207031-15.207031zm0 0"/><path d="m227.613281 426.21875h-156.695312c-8.394531 0-15.207031 6.8125-15.207031 15.207031 0 8.402344 6.8125 15.207031 15.207031 15.207031h156.695312c8.394531 0 15.207031-6.804687 15.207031-15.207031 0-8.394531-6.8125-15.207031-15.207031-15.207031zm0 0"/><path d="m441.082031 298.480469h-141.484375c-8.394531 0-15.210937 6.8125-15.210937 15.207031v127.738281c0 8.429688 6.84375 15.207031 15.210937 15.207031h141.484375c8.394531 0 15.207031-6.804687 15.207031-15.207031v-127.738281c0-8.863281-7.265624-15.207031-15.207031-15.207031zm-126.277343 30.417969h86.746093l-86.746093 78.308593zm111.066406 97.320312h-86.734375l86.734375-78.3125zm0 0"/></svg>