<svg height="496pt" viewBox="0 0 496 496" width="496pt" xmlns="http://www.w3.org/2000/svg" fill="#828a9f"><path d="m479.785156 436.265625c.144532-1.449219.214844-2.867187.214844-4.265625 0-26.472656-21.527344-48-48-48-17.449219 0-33.390625 9.640625-41.769531 24.640625-2.054688-.425781-4.132813-.640625-6.230469-.640625-14.886719 0-27.441406 10.222656-30.992188 24.015625-12.230468-.519531-22.863281 6.128906-28.566406 15.984375h-53.914062c-2.414063-6.777344-7.75-12.113281-14.527344-14.527344v-49.472656h48c17.648438 0 32-14.351562 32-32 0-11.734375-6.296875-22.167969-16.214844-27.734375.144532-1.449219.214844-2.867187.214844-4.265625 0-26.472656-21.527344-48-48-48-17.449219 0-33.390625 9.640625-41.769531 24.640625-2.054688-.425781-4.132813-.640625-6.230469-.640625-14.886719 0-27.441406 10.222656-30.992188 24.015625-18.097656-.640625-33.007812 14-33.007812 31.984375 0 17.648438 14.351562 32 32 32h48v49.472656c-6.777344 2.414063-12.113281 7.75-14.527344 14.527344h-53.769531c-2.816406-4.847656-6.902344-8.921875-11.917969-11.734375.144532-1.449219.214844-2.867187.214844-4.265625 0-26.472656-21.527344-48-48-48-17.449219 0-33.390625 9.640625-41.769531 24.640625-2.054688-.425781-4.132813-.640625-6.230469-.640625-14.886719 0-27.441406 10.222656-30.992188 24.015625-18.070312-.757813-33.007812 14-33.007812 31.984375 0 17.648438 14.351562 32 32 32h112c17.648438 0 32-14.351562 32-32h49.472656c3.3125 9.289062 12.113282 16 22.527344 16s19.214844-6.710938 22.527344-16h49.472656c0 17.648438 14.351562 32 32 32h112c17.648438 0 32-14.351562 32-32 0-11.734375-6.296875-22.167969-16.214844-27.734375zm-303.785156-84.265625c0-8.824219 7.175781-16 16-16 1.726562 0 3.503906.335938 5.441406 1.039062 2.550782.929688 5.398438.488282 7.558594-1.160156 2.160156-1.640625 3.335938-4.269531 3.136719-6.976562-.015625-.167969-.113281-.734375-.136719-.902344 0-11.160156 11.9375-19.710938 22.984375-14.304688 2.054687 1 4.414063 1.082032 6.519531.226563 2.113282-.859375 3.753906-2.570313 4.519532-4.707031 4.570312-12.6875 16.617187-21.214844 29.976562-21.214844 17.648438 0 32 14.351562 32 32 0 2.230469-.304688 4.617188-.929688 7.296875-.957031 4.117187 1.449219 8.269531 5.496094 9.488281 6.839844 2.046875 11.433594 8.167969 11.433594 15.214844 0 8.824219-7.175781 16-16 16h-112c-8.824219 0-16-7.175781-16-16zm-32 128h-112c-8.824219 0-16-7.175781-16-16s7.175781-16 16-16c1.726562 0 3.503906.335938 5.441406 1.039062 2.542969.929688 5.40625.488282 7.558594-1.160156 2.160156-1.640625 3.335938-4.269531 3.136719-6.976562-.015625-.167969-.113281-.734375-.136719-.902344 0-11.152344 11.945312-19.703125 22.984375-14.304688 2.054687 1 4.421875 1.082032 6.519531.226563 2.113282-.859375 3.753906-2.570313 4.519532-4.707031 4.570312-12.6875 16.617187-21.214844 29.976562-21.214844 17.648438 0 32 14.351562 32 32 0 2.230469-.304688 4.617188-.929688 7.296875-.957031 4.117187 1.449219 8.269531 5.496094 9.488281 6.839844 2.046875 11.433594 8.167969 11.433594 15.214844 0 8.824219-7.175781 16-16 16zm104-16c-4.414062 0-8-3.59375-8-8s3.585938-8 8-8 8 3.59375 8 8-3.585938 8-8 8zm216 16h-112c-8.824219 0-16-7.175781-16-16s7.175781-16 16-16c1.726562 0 3.503906.335938 5.441406 1.039062 2.542969.929688 5.398438.488282 7.558594-1.160156 2.160156-1.640625 3.335938-4.269531 3.136719-6.976562-.015625-.167969-.113281-.734375-.136719-.902344 0-11.152344 11.9375-19.703125 22.984375-14.304688 2.054687 1 4.421875 1.082032 6.519531.226563 2.113282-.859375 3.753906-2.570313 4.519532-4.707031 4.570312-12.6875 16.617187-21.214844 29.976562-21.214844 17.648438 0 32 14.351562 32 32 0 2.230469-.304688 4.617188-.929688 7.296875-.957031 4.117187 1.449219 8.269531 5.496094 9.488281 6.839844 2.046875 11.433594 8.167969 11.433594 15.214844 0 8.824219-7.175781 16-16 16zm0 0"/><path d="m248 128c-22.054688 0-40 17.945312-40 40s17.945312 40 40 40 40-17.945312 40-40-17.945312-40-40-40zm0 64c-13.230469 0-24-10.769531-24-24s10.769531-24 24-24 24 10.769531 24 24-10.769531 24-24 24zm0 0"/><path d="m128 176h32v8c0 4.414062 3.574219 8 8 8h12.167969c.726562 2.0625 1.542969 4.089844 2.449219 6.0625l-12.273438 12.28125c-3.128906 3.128906-3.128906 8.183594 0 11.3125l24 24c3 3 8.3125 3 11.3125 0l12.28125-12.28125c1.964844.90625 3.992188 1.722656 6.0625 2.449219v12.175781c0 4.414062 3.574219 8 8 8h32c4.425781 0 8-3.585938 8-8v-12.175781c2.070312-.726563 4.097656-1.542969 6.0625-2.449219l12.28125 12.28125c1.496094 1.503906 3.527344 2.34375 5.65625 2.34375s4.160156-.839844 5.65625-2.34375l24-24c3.128906-3.128906 3.128906-8.183594 0-11.3125l-12.273438-12.28125c.898438-1.972656 1.722657-4 2.449219-6.0625h12.167969c4.425781 0 8-3.585938 8-8v-8h32c26.472656 0 48-21.527344 48-48s-21.527344-48-48-48c-2.886719 0-5.742188.265625-8.550781.800781.367187-2.929687.550781-5.863281.550781-8.800781 0-39.695312-32.296875-72-72-72-28.054688 0-53.359375 16.503906-65.078125 41.3125-9.089844-6.066406-19.746094-9.3125-30.921875-9.3125-28.433594 0-51.976562 21.296875-55.527344 48.769531-2.792968-.511719-5.625-.769531-8.472656-.769531-26.472656 0-48 21.527344-48 48s21.527344 48 48 48zm192 0h-10.097656c-3.644532 0-6.832032 2.464844-7.742188 6-1.257812 4.847656-3.113281 9.441406-5.503906 13.648438-1.785156 3.136718-1.25 7.070312 1.296875 9.617187l10.734375 10.734375-12.6875 12.6875-10.734375-10.734375c-2.554687-2.554687-6.503906-3.089844-9.617187-1.296875-4.207032 2.398438-8.800782 4.246094-13.648438 5.503906-3.527344.902344-6 4.097656-6 7.742188v10.097656h-16v-10.097656c0-3.644532-2.472656-6.832032-6-7.742188-4.847656-1.25-9.441406-3.105468-13.648438-5.503906-3.121093-1.792969-7.070312-1.265625-9.617187 1.296875l-10.734375 10.734375-12.6875-12.6875 10.734375-10.734375c2.546875-2.546875 3.082031-6.488281 1.296875-9.617187-2.398438-4.207032-4.246094-8.800782-5.503906-13.648438-.917969-3.535156-4.097656-6-7.742188-6h-10.097656v-16h10.097656c3.644532 0 6.832032-2.464844 7.742188-6 1.257812-4.847656 3.113281-9.441406 5.503906-13.648438 1.785156-3.136718 1.25-7.070312-1.296875-9.617187l-10.734375-10.734375 12.6875-12.6875 10.734375 10.734375c2.546875 2.554687 6.496094 3.074219 9.617187 1.296875 4.207032-2.398438 8.800782-4.246094 13.648438-5.503906 3.527344-.910156 6-4.097656 6-7.742188v-10.097656h16v10.097656c0 3.644532 2.472656 6.832032 6 7.742188 4.847656 1.25 9.441406 3.105468 13.648438 5.503906 3.113281 1.777344 7.0625 1.257812 9.617187-1.296875l10.734375-10.734375 12.6875 12.6875-10.734375 10.734375c-2.546875 2.546875-3.082031 6.488281-1.296875 9.617187 2.398438 4.207032 4.246094 8.800782 5.503906 13.648438.910156 3.527344 4.097656 6 7.742188 6h10.097656zm-192-80c4.414062 0 8.769531.9375 12.921875 2.785156 2.574219 1.144532 5.519531.589844 7.832031-1.007812 2.292969-1.609375 3.558594-4.554688 3.367188-7.351563-.058594-.800781-.121094-1.609375-.121094-2.425781 0-22.054688 17.945312-40 40-40 10.894531 0 21.097656 4.328125 28.710938 12.183594 1.984374 2.054687 4.9375 2.878906 7.703124 2.191406 2.777344-.703125 4.960938-2.832031 5.746094-5.582031 6.761719-24.015625 28.902344-40.792969 53.839844-40.792969 30.871094 0 56 25.121094 56 56 0 6.296875-1.113281 12.59375-3.289062 18.726562-1.117188 3.152344-.160157 6.671876 2.410156 8.816407 2.574218 2.152343 6.207031 2.464843 9.101562.808593 5.050782-2.886718 10.351563-4.351562 15.777344-4.351562 17.648438 0 32 14.351562 32 32s-14.351562 32-32 32h-32v-8c0-4.414062-3.574219-8-8-8h-12.167969c-.726562-2.0625-1.542969-4.089844-2.449219-6.0625l12.273438-12.28125c3.128906-3.128906 3.128906-8.183594 0-11.3125l-24-24c-3-3-8.3125-3-11.3125 0l-12.28125 12.28125c-1.964844-.90625-3.992188-1.722656-6.0625-2.449219v-12.175781c0-4.414062-3.574219-8-8-8h-32c-4.425781 0-8 3.585938-8 8v12.175781c-2.070312.726563-4.097656 1.542969-6.0625 2.449219l-12.28125-12.28125c-1.496094-1.503906-3.527344-2.34375-5.65625-2.34375s-4.160156.839844-5.65625 2.34375l-24 24c-3.128906 3.128906-3.128906 8.183594 0 11.3125l12.273438 12.28125c-.898438 1.972656-1.722657 4-2.449219 6.0625h-12.167969c-4.425781 0-8 3.585938-8 8v8h-32c-17.648438 0-32-14.351562-32-32s14.351562-32 32-32zm0 0"/><path d="m342.007812 330.273438 11.0625 11.558593c5.480469-5.238281 10.59375-10.929687 15.203126-16.886719l-12.65625-9.792968c-4.121094 5.34375-8.707032 10.433594-13.609376 15.121094zm0 0"/><path d="m388.078125 291.113281-14.734375-6.234375c-2.191406 5.183594-4.726562 10.273438-7.527344 15.121094l13.839844 8.015625c3.144531-5.421875 5.96875-11.113281 8.421875-16.902344zm0 0"/><path d="m397.894531 257.335938-15.78125-2.640626c-.847656 5.082032-2.007812 10.167969-3.457031 15.144532l15.375 4.457031c1.617188-5.578125 2.914062-11.28125 3.863281-16.960937zm0 0"/><path d="m400 232c0-2.855469-.089844-5.695312-.238281-8.519531l-15.96875.878906c.136719 2.535156.207031 5.082031.207031 7.640625s-.070312 5.113281-.207031 7.640625l15.96875.878906c.148437-2.816406.238281-5.664062.238281-8.519531zm0 0"/><path d="m397.894531 206.695312c-.933593-5.640624-2.222656-11.320312-3.832031-16.878906l-15.375 4.429688c1.433594 4.96875 2.578125 10.042968 3.425781 15.082031zm0 0"/><path d="m117.3125 194.207031-15.375-4.421875c-1.59375 5.542969-2.882812 11.222656-3.832031 16.886719l15.78125 2.648437c.847656-5.0625 2-10.152343 3.425781-15.113281zm0 0"/><path d="m96 232c0 2.832031.078125 5.65625.230469 8.449219l15.96875-.898438c-.136719-2.503906-.199219-5.015625-.199219-7.550781s.0625-5.046875.199219-7.550781l-15.96875-.898438c-.152344 2.792969-.230469 5.617188-.230469 8.449219zm0 0"/><path d="m117.3125 269.792969c-1.433594-4.96875-2.578125-10.050781-3.433594-15.113281l-15.78125 2.648437c.949219 5.664063 2.238282 11.335937 3.832032 16.886719zm0 0"/><path d="m130.183594 299.992188c-2.816406-4.855469-5.34375-9.945313-7.511719-15.105469l-14.75 6.21875c2.4375 5.773437 5.269531 11.460937 8.421875 16.894531zm0 0"/><path d="m153.9375 330.222656c-4.875-4.664062-9.457031-9.75-13.601562-15.117187l-12.65625 9.789062c4.632812 5.992188 9.746093 11.671875 15.191406 16.890625zm0 0"/></svg>