<svg xmlns="http://www.w3.org/2000/svg" viewBox="0 10 340 82">
    <g fill="#FFFFFF">
        <path d="M106.2,62.9h-4V36.2h16.2v3.5h-12.1v8.5h11.1v3.4h-11.1V62.9z"/>
        <path d="M134.1,60.2c-0.5,0.9-1.3,1.6-2.3,2.2c-1,0.6-2.2,0.8-3.6,0.8c-2,0-3.6-0.6-4.9-1.7       c-1.2-1.1-1.9-2.6-1.9-4.5c0-1.8,0.6-3.3,1.9-4.4c1.3-1.1,3-1.6,5.4-1.6h5.3v-2.3c0-2.3-1.3-3.4-4-3.4c-2.5,0-3.8,1-4,3.1h-3.8       c0.1-1.9,0.8-3.5,2.1-4.6s3.3-1.7,5.8-1.7c2.4,0,4.4,0.5,5.7,1.6s2.1,2.8,2.1,5.1v14.2h-3.8v-2.7H134.1z M129.4,60.1       c1.3,0,2.4-0.4,3.3-1.2c0.9-0.8,1.3-1.8,1.3-3v-2.2h-4.7c-1.3,0-2.2,0.3-2.9,0.8c-0.6,0.5-1,1.3-1,2.2c0,1.1,0.4,1.9,1.1,2.5       C127.4,59.8,128.3,60.1,129.4,60.1z"/>
        <path d="M143.2,53.7v-2.2c0-2.8,0.8-5.1,2.3-6.8c1.5-1.8,3.7-2.6,6.4-2.6c2.5,0,4.4,0.7,5.8,2       c1.4,1.3,2.2,2.9,2.2,4.7h-3.8c-0.1-0.8-0.5-1.6-1.3-2.3c-0.7-0.7-1.7-1-2.9-1c-1.6,0-2.8,0.6-3.6,1.8c-0.8,1.2-1.2,2.7-1.2,4.5       v2.1c0,1.8,0.4,3.3,1.3,4.4c0.9,1.1,2.1,1.7,3.6,1.7c1.3,0,2.3-0.3,3-0.8c0.7-0.5,1.2-1.3,1.4-2.1h3.8c-0.1,1.8-0.8,3.3-2.3,4.5       c-1.5,1.2-3.4,1.8-5.8,1.8c-2.8,0-4.9-0.9-6.4-2.6C143.9,58.9,143.2,56.5,143.2,53.7z"/>
        <path d="M173,63.2c-2.9,0-5.1-0.9-6.7-2.6c-1.5-1.7-2.3-4.1-2.3-7.1v-1.8c0-3,0.8-5.3,2.3-7.1       c1.5-1.8,3.7-2.7,6.4-2.7c2.8,0,4.9,0.9,6.4,2.7s2.2,4.1,2.2,7.1v1.8H168v0.6c0,1.7,0.4,3.1,1.3,4.2c0.9,1.1,2.1,1.7,3.7,1.7       c1.3,0,2.2-0.3,2.9-0.8c0.7-0.6,1.1-1.2,1.3-2.1h3.9c-0.1,0.7-0.3,1.4-0.7,2.1c-0.3,0.7-0.8,1.3-1.4,2s-1.4,1.1-2.5,1.5       S174.4,63.2,173,63.2z M168,50.6h9.6v-0.1c0-1.6-0.4-2.9-1.3-3.9c-0.9-1-2-1.5-3.5-1.5c-1.5,0-2.6,0.5-3.5,1.5S168,49,168,50.6       L168,50.6z"/>
        <path d="M196.7,63.2c-1.5,0-2.8-0.3-3.9-1c-1-0.6-1.8-1.5-2.2-2.5h-0.1v3.1h-3.8V34.8h3.9v10.4h0.1       c1.2-2.1,3.2-3.2,6-3.2c2.5,0,4.5,0.8,5.9,2.5s2.1,4,2.1,6.9v2.3c0,3-0.7,5.3-2.1,7C201.2,62.4,199.2,63.2,196.7,63.2z M195.7,59.9       c1.5,0,2.7-0.5,3.6-1.7c0.9-1.1,1.3-2.7,1.3-4.7v-1.8c0-2.1-0.4-3.7-1.3-4.8c-0.9-1.1-2.1-1.7-3.7-1.7c-1.5,0-2.8,0.6-3.7,1.8       s-1.4,2.7-1.4,4.5v2.2c0,1.1,0.2,2.1,0.5,3c0.4,0.9,0.9,1.7,1.7,2.3C193.7,59.6,194.6,59.9,195.7,59.9z"/>
        <path d="M218.1,42c3,0,5.2,0.9,6.7,2.7s2.3,4.2,2.3,7.2v1.6c0,3-0.8,5.5-2.3,7.2c-1.5,1.8-3.8,2.7-6.7,2.7       c-3,0-5.2-0.9-6.8-2.6c-1.5-1.8-2.3-4.2-2.3-7.2v-1.6c0-2.9,0.8-5.3,2.3-7.1S215.2,42,218.1,42z M220.1,45.6       c-0.6-0.2-1.3-0.4-2-0.4s-1.4,0.1-2,0.4c-0.6,0.2-1.1,0.6-1.5,1c-0.4,0.4-0.7,0.9-0.9,1.5c-0.2,0.6-0.4,1.2-0.5,1.9       S213,51.3,213,52v1.1c0,0.8,0.1,1.5,0.2,2.1c0.1,0.7,0.3,1.3,0.5,1.9s0.6,1.1,0.9,1.5c0.4,0.4,0.9,0.7,1.5,1c0.6,0.2,1.3,0.4,2,0.4       c0.9,0,1.7-0.2,2.4-0.5c0.7-0.4,1.2-0.9,1.6-1.5c0.4-0.7,0.6-1.4,0.8-2.1c0.2-0.8,0.2-1.6,0.2-2.6V52c0-0.8,0-1.5-0.1-2.1       s-0.3-1.3-0.5-1.9c-0.2-0.6-0.5-1.1-0.9-1.5C221.2,46.1,220.7,45.8,220.1,45.6z"/>
        <path d="M240.5,42c3,0,5.2,0.9,6.7,2.7s2.3,4.2,2.3,7.2v1.6c0,3-0.8,5.5-2.3,7.2c-1.5,1.8-3.8,2.7-6.7,2.7       c-3,0-5.2-0.9-6.8-2.6c-1.5-1.8-2.3-4.2-2.3-7.2v-1.6c0-2.9,0.8-5.3,2.3-7.1S237.5,42,240.5,42z M242.5,45.6       c-0.6-0.2-1.3-0.4-2-0.4s-1.4,0.1-2,0.4c-0.6,0.2-1.1,0.6-1.5,1c-0.4,0.4-0.7,0.9-0.9,1.5c-0.2,0.6-0.4,1.2-0.5,1.9       s-0.2,1.3-0.2,2.1v1.1c0,0.8,0.1,1.5,0.2,2.1c0.1,0.7,0.3,1.3,0.5,1.9s0.6,1.1,0.9,1.5c0.4,0.4,0.9,0.7,1.5,1       c0.6,0.2,1.3,0.4,2,0.4c0.9,0,1.7-0.2,2.4-0.5c0.7-0.4,1.2-0.9,1.6-1.5c0.4-0.7,0.6-1.4,0.8-2.1c0.2-0.8,0.2-1.6,0.2-2.6V52       c0-0.8,0-1.5-0.1-2.1s-0.3-1.3-0.5-1.9c-0.2-0.6-0.5-1.1-0.9-1.5C243.6,46.1,243.1,45.8,242.5,45.6z"/>
        <path d="M258.8,55.4v7.5h-3.9V34.8h3.9v16.6h0.2l7.9-9.1h4.5l-7.9,8.9l8.4,11.7h-4.7l-6.7-9.3L258.8,55.4z"/>
        <path d="M73.3,26.5H29.7c-1.5,0-2.7,1.2-2.7,2.7v43.6c0,1.5,1.2,2.7,2.7,2.7h23.4v-19h-6.4v-7.4h6.4v-5.4       c0-6.3,3.9-9.8,9.5-9.8c2.7,0,5,0.2,5.7,0.3v6.6l-3.9,0c-3.1,0-3.7,1.5-3.7,3.6v4.7h7.3l-1,7.4h-6.4v19h12.5c1.5,0,2.7-1.2,2.7-2.7       V29.2C76,27.7,74.8,26.5,73.3,26.5z"/>
    </g>
</svg>
