<svg xmlns="http://www.w3.org/2000/svg" viewBox="0 10 340 82">
    <path fill="#FFFFFF" d="M43.8,27.4c-6.1,2.1-11.3,6.6-14.2,12.4c-1,2-1.7,4.1-2.2,6.3c-1.1,5.4-0.3,11.2,2.2,16.2   c1.6,3.2,4,6.1,6.8,8.3c2.7,2.1,5.8,3.7,9.1,4.6c4.2,1.1,8.6,1.1,12.8,0.1c3.8-0.9,7.4-2.7,10.2-5.3c3-2.8,5.2-6.4,6.3-10.4   c1.2-4.3,1.4-8.9,0.6-13.3c-7.8,0-15.7,0-23.5,0c0,3.3,0,6.5,0,9.8c4.5,0,9.1,0,13.6,0c-0.5,3.1-2.4,6-5,7.7   c-1.7,1.1-3.5,1.8-5.5,2.2c-2,0.3-4,0.4-6,0c-2-0.4-3.9-1.2-5.6-2.4c-2.7-1.9-4.7-4.6-5.7-7.7c-1.1-3.1-1.1-6.6,0-9.7   c0.7-2.2,2-4.2,3.6-5.9c2-2.1,4.6-3.5,7.5-4.1c2.4-0.5,5-0.4,7.3,0.3c2,0.6,3.9,1.7,5.4,3.2c1.5-1.5,3.1-3.1,4.6-4.6   c0.8-0.8,1.7-1.6,2.4-2.5c-2.3-2.2-5.1-3.9-8-5C55.3,25.5,49.2,25.5,43.8,27.4z"/>
    <path fill="#E94435" d="M43.8,27.4c5.4-1.9,11.5-1.8,16.8,0.1c3,1.1,5.7,2.8,8,5c-0.8,0.8-1.6,1.6-2.4,2.5     c-1.5,1.5-3.1,3.1-4.6,4.6c-1.5-1.5-3.4-2.6-5.4-3.2c-2.4-0.7-4.9-0.8-7.3-0.3c-2.8,0.6-5.4,2.1-7.5,4.1c-1.6,1.7-2.9,3.7-3.6,5.9     c-2.7-2.1-5.5-4.2-8.2-6.4C32.5,34,37.7,29.5,43.8,27.4z"/>
    <path fill="#F8BB15" d="M27.5,46.1c0.4-2.2,1.2-4.3,2.2-6.3c2.7,2.1,5.5,4.2,8.2,6.4c-1.1,3.1-1.1,6.6,0,9.7     c-2.7,2.1-5.5,4.2-8.2,6.4C27.2,57.3,26.4,51.5,27.5,46.1z"/>
    <path fill="#547DBE" d="M52,46.3c7.8,0,15.7,0,23.5,0c0.8,4.4,0.6,9-0.6,13.3c-1.1,3.9-3.3,7.6-6.3,10.4c-2.6-2.1-5.3-4.1-7.9-6.2     c2.6-1.8,4.5-4.6,5-7.7c-4.5,0-9.1,0-13.6,0C52,52.8,52,49.6,52,46.3z"/>
    <path fill="#34A751" d="M29.7,62.2c2.7-2.1,5.5-4.2,8.2-6.4c1,3.1,3.1,5.8,5.7,7.7c1.7,1.2,3.6,2,5.6,2.4c2,0.4,4,0.4,6,0     c2-0.3,3.9-1.1,5.5-2.2c2.6,2.1,5.3,4.1,7.9,6.2c-2.9,2.6-6.4,4.5-10.2,5.3c-4.2,1-8.6,1-12.8-0.1c-3.3-0.9-6.4-2.5-9.1-4.6     C33.6,68.3,31.3,65.5,29.7,62.2z"/>
    <g fill="#919191">
        <path d="M123.4,44.4h-4c-0.2-1.7-0.9-3-2-3.9c-1.1-0.9-2.5-1.3-4.2-1.3c-2,0-3.6,0.7-4.9,2.1s-1.9,3.5-1.9,6.4v3.6       c0,2.7,0.6,4.8,1.7,6.4c1.1,1.5,2.8,2.3,5.1,2.3c1.9,0,3.4-0.5,4.6-1.6c1.2-1,1.8-2.4,1.8-4v-2.3h-6.4v-3.3h10.3v5.4       c0,0.8-0.1,1.6-0.3,2.4c-0.2,0.8-0.6,1.6-1.1,2.4c-0.5,0.8-1.1,1.6-1.9,2.2c-0.8,0.6-1.7,1.1-2.9,1.5c-1.2,0.4-2.5,0.6-4,0.6       c-3.5,0-6.2-1.1-8.1-3.3c-1.8-2.2-2.7-5.1-2.7-8.9v-3.6c0-3.7,1-6.7,2.9-8.8c2-2.1,4.6-3.2,8-3.2c1.5,0,3,0.2,4.2,0.7       s2.3,1.1,3.1,2c0.8,0.8,1.5,1.8,1.9,2.8C123,42.2,123.3,43.3,123.4,44.4z"/>
        <path d="M137.4,41.9c3,0,5.2,0.9,6.7,2.7c1.5,1.8,2.3,4.2,2.3,7.2v1.6c0,3-0.8,5.5-2.3,7.2s-3.8,2.7-6.7,2.7       c-3,0-5.2-0.9-6.8-2.6s-2.3-4.2-2.3-7.2v-1.6c0-2.9,0.8-5.3,2.3-7.1S134.4,41.9,137.4,41.9z M139.4,45.5c-0.6-0.2-1.3-0.4-2-0.4       c-0.8,0-1.4,0.1-2,0.4c-0.6,0.2-1.1,0.6-1.5,1c-0.4,0.4-0.7,0.9-0.9,1.5c-0.2,0.6-0.4,1.2-0.5,1.9c-0.1,0.6-0.2,1.3-0.2,2.1v1.1       c0,0.8,0.1,1.5,0.2,2.1c0.1,0.7,0.3,1.3,0.5,1.9c0.2,0.6,0.6,1.1,0.9,1.5c0.4,0.4,0.9,0.7,1.5,1c0.6,0.2,1.3,0.4,2,0.4       c0.9,0,1.7-0.2,2.4-0.5c0.7-0.4,1.2-0.9,1.6-1.5s0.6-1.4,0.8-2.1c0.2-0.8,0.2-1.6,0.2-2.6V52c0-0.8,0-1.5-0.1-2.1s-0.3-1.3-0.5-1.9       c-0.2-0.6-0.6-1.1-0.9-1.5C140.4,46.1,140,45.8,139.4,45.5z"/>
        <path d="M159.7,41.9c3,0,5.2,0.9,6.7,2.7c1.5,1.8,2.3,4.2,2.3,7.2v1.6c0,3-0.8,5.5-2.3,7.2s-3.8,2.7-6.7,2.7       c-3,0-5.2-0.9-6.8-2.6s-2.3-4.2-2.3-7.2v-1.6c0-2.9,0.8-5.3,2.3-7.1S156.8,41.9,159.7,41.9z M161.7,45.5c-0.6-0.2-1.3-0.4-2-0.4       c-0.8,0-1.4,0.1-2,0.4c-0.6,0.2-1.1,0.6-1.5,1c-0.4,0.4-0.7,0.9-0.9,1.5c-0.2,0.6-0.4,1.2-0.5,1.9c-0.1,0.6-0.2,1.3-0.2,2.1v1.1       c0,0.8,0.1,1.5,0.2,2.1c0.1,0.7,0.3,1.3,0.5,1.9c0.2,0.6,0.6,1.1,0.9,1.5c0.4,0.4,0.9,0.7,1.5,1c0.6,0.2,1.3,0.4,2,0.4       c0.9,0,1.7-0.2,2.4-0.5c0.7-0.4,1.2-0.9,1.6-1.5s0.6-1.4,0.8-2.1c0.2-0.8,0.2-1.6,0.2-2.6V52c0-0.8,0-1.5-0.1-2.1s-0.3-1.3-0.5-1.9       c-0.2-0.6-0.6-1.1-0.9-1.5C162.8,46.1,162.3,45.8,161.7,45.5z"/>
        <path d="M181.7,67.3c1.7,0,3-0.4,3.9-1.3c0.9-0.9,1.3-2.1,1.3-3.7v-3h-0.1c-0.4,0.9-1.2,1.7-2.2,2.3       s-2.3,0.9-3.7,0.9c-2.3,0-4.3-0.8-5.8-2.4c-1.5-1.6-2.3-3.8-2.3-6.6V51c0-2.7,0.8-4.9,2.3-6.6c1.5-1.7,3.5-2.5,5.8-2.5       c1.6,0,2.8,0.3,3.8,0.9c1,0.6,1.7,1.4,2.1,2.3h0.1v-2.9h3.8v20.2c0,1.4-0.2,2.6-0.7,3.7c-0.5,1.1-1.1,1.9-2,2.5       c-0.8,0.6-1.8,1.1-2.9,1.4c-1.1,0.3-2.3,0.5-3.7,0.5c-2.6,0-4.7-0.6-6.1-1.8c-1.4-1.2-2.1-2.6-2.2-4.3h4c0.1,0.8,0.6,1.5,1.3,2.1       C179.3,67,180.4,67.3,181.7,67.3z M182,45.2c-1.6,0-2.8,0.6-3.8,1.7c-0.9,1.1-1.4,2.7-1.4,4.6v1.8c0,1.9,0.5,3.4,1.4,4.5       s2.2,1.6,3.8,1.6c1.5,0,2.7-0.6,3.6-1.7s1.3-2.5,1.3-4.2v-2.1c0-1.8-0.4-3.3-1.3-4.5S183.5,45.2,182,45.2z"/>
        <path d="M196.9,62.8V34.8h3.9v28.1H196.9z"/>
        <path d="M215.3,63.2c-2.9,0-5.1-0.9-6.7-2.6s-2.3-4.1-2.3-7.1v-1.8c0-3,0.8-5.3,2.3-7.1s3.7-2.7,6.4-2.7       c2.8,0,4.9,0.9,6.4,2.7s2.2,4.1,2.2,7.1v1.8h-13.5V54c0,1.7,0.4,3.1,1.3,4.2s2.1,1.7,3.7,1.7c1.3,0,2.2-0.3,2.9-0.8       s1.1-1.2,1.3-2.1h3.9c-0.1,0.7-0.3,1.4-0.7,2.1s-0.8,1.3-1.4,2s-1.4,1.1-2.5,1.5S216.6,63.2,215.3,63.2z M210.2,50.6h9.6v-0.1       c0-1.6-0.4-2.9-1.3-3.9s-2-1.5-3.5-1.5s-2.6,0.5-3.5,1.5S210.2,48.9,210.2,50.6L210.2,50.6z"/>
    </g>
</svg>
