<svg xmlns="http://www.w3.org/2000/svg" width="171" height="171" viewBox="0 0 171 171">
    <path fill="#FFF" d="M85,0 C38.0557963,-2.87450344e-15 5.74900688e-15,38.0557963 0,85 C-5.74900688e-15,131.944204 38.0557963,170 85,170 C131.944204,170 170,131.944204 170,85 C170,62.4565984 161.044669,40.8365158 145.104076,24.8959236 C129.163484,8.95533143 107.543402,1.38038523e-15 85,0 Z M85,33.6046512 C99.0887197,33.6046512 110.509884,45.0258151 110.509884,59.1145349 C110.509884,73.2032546 99.0887197,84.6244186 85,84.6244186 C70.9112803,84.6244186 59.4901163,73.2032546 59.4901163,59.1145349 C59.5064558,45.0325887 70.9180539,33.6209907 85,33.6046512 Z M127.5,114.325 C116.173256,127.915116 101.07093,135.406977 85,135.406977 C68.9290698,135.406977 53.8267442,127.915116 42.5,114.315116 L42.1540698,113.9 L42.2331395,113.366279 C44.4174419,99.094186 51.8796512,87.619186 63.255814,81.0465116 L64.0662791,80.5819767 L64.7087209,81.2540698 C69.9971311,86.822826 77.3400325,89.9760008 85.0197674,89.9760008 C92.6995024,89.9760008 100.042404,86.822826 105.330814,81.2540698 L105.973256,80.5819767 L106.744186,81.0465116 C118.100581,87.5994186 125.523256,99.0744186 127.756977,113.356395 L127.836047,113.890116 L127.5,114.325 Z" opacity=".4" transform="translate(.444 .716)"/>
</svg>
